<svg class="banner-root" viewBox="0 0 1150 250" width="100%" height="auto" role="img" aria-labelledby="title desc" xmlns="http://www.w3.org/2000/svg">
  <title id="title">Mystic Profile Header Banner</title>
  <desc id="desc">Animated premium cosmic cyberpunk header for Mystic profile with custom logo, HUD rings, perspective grids, and smooth alpha waves</desc>

  <style>
    :root {
      color-scheme: dark;
    }
    .banner-root {
      display: block;
      width: 100%;
      height: auto;
      overflow: visible;
    }
    .star {
      animation: twinkle 4s ease-in-out infinite;
    }
    @keyframes twinkle {
      0%, 100% { opacity: 0.15; }
      50% { opacity: 0.85; }
    }
    .logo-pulse {
      animation: pulse 4.5s ease-in-out infinite;
      transform-box: fill-box;
      transform-origin: center;
    }
    @keyframes pulse {
      0%, 100% { transform: scale(0.96); filter: drop-shadow(0 0 4px rgba(124, 58, 237, 0.4)); }
      50% { transform: scale(1.04); filter: drop-shadow(0 0 12px rgba(124, 58, 237, 0.8)); }
    }
    .hud-glow {
      filter: drop-shadow(0 0 3px rgba(14, 165, 233, 0.3));
    }
    .text-glow {
      filter: drop-shadow(0 0 3px rgba(124, 58, 237, 0.45)) drop-shadow(0 0 10px rgba(124, 58, 237, 0.25));
    }
    @media (prefers-reduced-motion: reduce) {
      .star, .logo-pulse, .hud-rotate-cw, .hud-rotate-ccw, .comet {
        animation: none !important;
        transform: none !important;
      }
    }
  </style>

  <defs>
    <!-- Background Gradients -->
    <linearGradient id="bgGradient" x1="0" x2="1" y1="0" y2="1">
      <stop offset="0%" stop-color="#030008"/>
      <stop offset="50%" stop-color="#0a041a"/>
      <stop offset="100%" stop-color="#020005"/>
    </linearGradient>

    <radialGradient id="nebulaPurple" cx="25%" cy="30%" r="50%">
      <stop offset="0%" stop-color="#7c3aed" stop-opacity="0.15"/>
      <stop offset="100%" stop-color="#7c3aed" stop-opacity="0"/>
    </radialGradient>

    <radialGradient id="nebulaCyan" cx="75%" cy="40%" r="45%">
      <stop offset="0%" stop-color="#00f2fe" stop-opacity="0.12"/>
      <stop offset="100%" stop-color="#00f2fe" stop-opacity="0"/>
    </radialGradient>

    <!-- Border & Wave Gradients -->
    <linearGradient id="borderGradient" x1="0" x2="1" y1="0" y2="0">
      <stop offset="0%" stop-color="#7c3aed"/>
      <stop offset="50%" stop-color="#0ea5e9"/>
      <stop offset="100%" stop-color="#059669"/>
    </linearGradient>

    <linearGradient id="titleGradient" x1="0" x2="1" y1="0" y2="0">
      <stop offset="0%" stop-color="#ffffff"/>
      <stop offset="60%" stop-color="#e9d5ff"/>
      <stop offset="100%" stop-color="#c084fc"/>
    </linearGradient>

    <!-- Front Wave Alpha Fade (masks bottom grid elements and transitions smoothly to transparent) -->
    <linearGradient id="frontWaveFill" x1="0" y1="0" x2="0" y2="1">
      <stop offset="0%" stop-color="#080416" stop-opacity="0.95"/>
      <stop offset="50%" stop-color="#05020c" stop-opacity="0.50"/>
      <stop offset="100%" stop-color="#030107" stop-opacity="0.00"/>
    </linearGradient>

    <!-- Comet Gradient -->
    <linearGradient id="cometGradient" x1="0" y1="0" x2="1" y2="0.3">
      <stop offset="0%" stop-color="#7c3aed" stop-opacity="0"/>
      <stop offset="70%" stop-color="#0ea5e9" stop-opacity="0.6"/>
      <stop offset="100%" stop-color="#ffffff" stop-opacity="1"/>
    </linearGradient>

    <!-- Glow Filter -->
    <filter id="glow" x="-20%" y="-20%" width="140%" height="140%">
      <feGaussianBlur stdDeviation="3.0" result="blur"/>
      <feMerge>
        <feMergeNode in="blur"/>
        <feMergeNode in="SourceGraphic"/>
      </feMerge>
    </filter>
  </defs>

  <!-- BACKGROUND CARD -->
  <!-- Base cosmic background -->
  <rect width="1150" height="160" fill="url(#bgGradient)"/>
  <rect width="1150" height="160" fill="url(#nebulaPurple)"/>
  <rect width="1150" height="160" fill="url(#nebulaCyan)"/>

  <!-- Twinkling Starfield -->
  <g fill="#ffffff">
    <circle class="star" cx="120" cy="35" r="1.2" style="animation-delay: 0.2s; animation-duration: 3.5s;"/>
    <circle class="star" cx="240" cy="20" r="1.5" style="animation-delay: 1.1s; animation-duration: 4.2s;"/>
    <circle class="star" cx="450" cy="45" r="1.0" style="animation-delay: 2.3s; animation-duration: 2.8s;"/>
    <circle class="star" cx="620" cy="15" r="1.8" style="animation-delay: 0.5s; animation-duration: 5.0s;"/>
    <circle class="star" cx="780" cy="40" r="1.3" style="animation-delay: 1.7s; animation-duration: 3.1s;"/>
    <circle class="star" cx="950" cy="25" r="1.6" style="animation-delay: 3.0s; animation-duration: 4.5s;"/>
    <circle class="star" cx="1080" cy="30" r="1.1" style="animation-delay: 0.8s; animation-duration: 3.9s;"/>
    <circle class="star" cx="330" cy="10" r="1.4" style="animation-delay: 1.5s; animation-duration: 4.8s;"/>
    <circle class="star" cx="870" cy="10" r="1.2" style="animation-delay: 2.7s; animation-duration: 3.4s;"/>
  </g>

  <!-- Shooting Stars / Comets -->
  <path class="comet" d="M 500 -30 L 1000 120" stroke="url(#cometGradient)" stroke-width="1.8" stroke-dasharray="40 300" stroke-dashoffset="0" opacity="0.8">
    <animate attributeName="stroke-dashoffset" values="340; -340" dur="5.5s" repeatCount="indefinite"/>
  </path>
  <path class="comet" d="M 200 -30 L 700 120" stroke="url(#cometGradient)" stroke-width="1.5" stroke-dasharray="30 250" stroke-dashoffset="0" opacity="0.6">
    <animate attributeName="stroke-dashoffset" values="280; -280" dur="8.0s" begin="2.5s" repeatCount="indefinite"/>
  </path>

  <!-- 3D Perspective Cyber Grid -->
  <!-- Grid Lines (Radiating) -->
  <g stroke="#7c3aed" stroke-width="0.8" opacity="0.10">
    <line x1="575" y1="-80" x2="-335" y2="160"/>
    <line x1="575" y1="-80" x2="-175" y2="160"/>
    <line x1="575" y1="-80" x2="-25" y2="160"/>
    <line x1="575" y1="-80" x2="115" y2="160"/>
    <line x1="575" y1="-80" x2="245" y2="160"/>
    <line x1="575" y1="-80" x2="365" y2="160"/>
    <line x1="575" y1="-80" x2="475" y2="160"/>
    <line x1="575" y1="-80" x2="575" y2="160"/>
    <line x1="575" y1="-80" x2="675" y2="160"/>
    <line x1="575" y1="-80" x2="785" y2="160"/>
    <line x1="575" y1="-80" x2="905" y2="160"/>
    <line x1="575" y1="-80" x2="1035" y2="160"/>
    <line x1="575" y1="-80" x2="1175" y2="160"/>
    <line x1="575" y1="-80" x2="1325" y2="160"/>
    <line x1="575" y1="-80" x2="1485" y2="160"/>
  </g>
  <!-- Grid Lines (Horizontal) -->
  <g stroke="#0ea5e9" stroke-width="0.8" opacity="0.08">
    <line x1="0" y1="20" x2="1150" y2="20"/>
    <line x1="0" y1="38" x2="1150" y2="38"/>
    <line x1="0" y1="58" x2="1150" y2="58"/>
    <line x1="0" y1="80" x2="1150" y2="80"/>
    <line x1="0" y1="104" x2="1150" y2="104"/>
    <line x1="0" y1="130" x2="1150" y2="130"/>
    <line x1="0" y1="158" x2="1150" y2="158"/>
  </g>

  <!-- BRAND LOGO & HUD CONTAINER -->
  <g class="hud-glow">
    <!-- Inner Rotating Dashed Circle -->
    <circle cx="175" cy="80" r="64" fill="none" stroke="#bd93f9" stroke-width="1.2" stroke-dasharray="10 8" opacity="0.45">
      <animateTransform attributeName="transform" type="rotate" from="0 175 80" to="360 175 80" dur="12s" repeatCount="indefinite"/>
    </circle>
    <!-- Outer Rotating Ring with custom intervals -->
    <circle cx="175" cy="80" r="76" fill="none" stroke="#0ea5e9" stroke-width="1.0" stroke-dasharray="60 30 15 30" opacity="0.35">
      <animateTransform attributeName="transform" type="rotate" from="360 175 80" to="0 175 80" dur="18s" repeatCount="indefinite"/>
    </circle>
    <!-- Rotating Node Particles -->
    <g>
      <animateTransform attributeName="transform" type="rotate" from="0 175 80" to="360 175 80" dur="8s" repeatCount="indefinite"/>
      <circle cx="175" cy="2" r="3.0" fill="#059669" filter="url(#glow)"/>
      <circle cx="175" cy="158" r="2.2" fill="#7c3aed" filter="url(#glow)"/>
    </g>
  </g>

  <!-- Custom MYSTIC logo center-aligned inside HUD -->
  <!-- ViewBox of logo is cropped slightly to center properly -->
  <svg x="120" y="25" width="110" height="110" viewBox="48 45 348 348" overflow="visible">
    <g class="logo-pulse">
      <!-- Path 1 (Top Left) -->
      <path d="M0 0 C16.30379229 -0.50333855 31.60170485 3.38883025 44.28515625 13.97265625 C57.43323646 26.681654 63.15194627 43.86639153 63.69495118 61.85944152 C63.76236896 66.04063096 63.75993712 70.22025454 63.74829102 74.40185547 C63.75404736 76.28779532 63.76113574 78.17373151 63.7694397 80.05966187 C63.7844479 84.09131153 63.79033615 88.12282967 63.78891182 92.15450668 C63.78686127 98.54538945 63.80655794 104.93609811 63.8290863 111.32693481 C63.86990816 123.74521144 63.88862362 136.16347386 63.90525818 148.58180237 C63.92766654 164.38067519 63.96142035 180.17950695 64.01245731 195.97831357 C64.03223104 202.3151949 64.04194899 208.65198421 64.04340947 214.98889518 C64.04618417 218.9492359 64.05706681 222.90952677 64.06991959 226.86984634 C64.07415367 228.68812848 64.07509066 230.5064222 64.07224464 232.32470703 C64.04389984 252.80260649 64.1306755 276.01957925 78.96875 291.89453125 C87.43182752 299.79079757 97.22669347 301.04659476 108.34765625 302.16015625 C104.09822409 305.99063031 99.63398869 308.01760527 94.41015625 310.16015625 C93.56694824 310.50900879 92.72374023 310.85786133 91.85498047 311.21728516 C69.11656114 320.44465737 45.53064241 323.80915901 22.03515625 315.41015625 C10.09304277 310.28368977 0.25293894 299.61647703 -5.140625 287.9375 C-9.85393848 276.04993945 -11.80914017 264.48901597 -11.79037476 251.74461365 C-11.79319604 250.94783661 -11.79601732 250.15105958 -11.79892409 249.33013779 C-11.80719054 246.68679719 -11.80860146 244.0434989 -11.81005859 241.40014648 C-11.81473278 239.49376815 -11.81987733 237.58739092 -11.82545471 235.68101501 C-11.8366961 231.58708744 -11.84514936 227.49316697 -11.85157394 223.39922905 C-11.86230432 216.91253366 -11.88256325 210.4258895 -11.9046936 203.93922424 C-11.96644633 185.49718582 -12.02056233 167.05515081 -12.05371094 148.61303711 C-12.07211455 138.41864087 -12.10112113 128.22433102 -12.14171565 118.02999836 C-12.16268748 112.64502733 -12.17822893 107.26016468 -12.18052292 101.87515068 C-12.1826862 96.80330945 -12.19872507 91.73169393 -12.22491264 86.65992165 C-12.23204321 84.81059391 -12.23423739 82.96123864 -12.23081017 81.11190033 C-12.20182889 62.4822101 -13.58062899 43.12560696 -26.30859375 28.35546875 C-34.68887187 20.50594158 -44.66938321 19.03039083 -55.65234375 18.16015625 C-52.90260577 14.73339945 -49.089805 13.38159126 -45.15234375 11.72265625 C-44.43256348 11.41553711 -43.7127832 11.10841797 -42.97119141 10.79199219 C-40.86959149 9.90290793 -38.76273751 9.02813239 -36.65234375 8.16015625 C-35.65976563 7.75152344 -34.6671875 7.34289062 -33.64453125 6.921875 C-22.86249649 2.7538944 -11.50328192 0.69460171 0 0 Z" fill="#ffffff" transform="translate(193.65234375,61.83984375)"/>
      <!-- Path 2 (Right Side) -->
      <path d="M0 0 C13.27608507 10.76781709 19.45169071 27.08332912 21.32194519 43.66020203 C22.00463219 50.70981324 21.96107537 57.76810528 21.97387695 64.84301758 C21.98015486 66.38003183 21.9868028 67.9170446 21.99378967 69.45405579 C22.01466542 74.46675594 22.02517289 79.47945584 22.03515625 84.4921875 C22.03920924 86.22728681 22.04332632 87.96238596 22.04750633 89.69748497 C22.06651759 97.84907512 22.08076001 106.00065641 22.0891183 114.15226442 C22.09889159 123.52543454 22.12523065 132.8983686 22.16561919 142.27145559 C22.19586631 149.54313973 22.21059508 156.81475647 22.21389931 164.08650225 C22.21623884 168.41789612 22.2250562 172.74903658 22.25036049 177.08036232 C22.27379939 181.15745138 22.27781169 185.23412291 22.26759911 189.31126213 C22.26710755 190.7974398 22.2733142 192.2836392 22.28715515 193.7697525 C22.41262328 208.05362091 20.09914242 219.87970812 9.94921875 230.30859375 C1.27462228 238.48306438 -7.85486192 240.79658862 -19.52734375 240.6875 C-29.41656301 239.94134212 -37.35168125 235.50019559 -44.109375 228.41015625 C-52.49046908 218.46648531 -53.79732669 208.22316999 -53.71728516 195.56982422 C-53.72275791 194.10811122 -53.73000625 192.64640397 -53.73887634 191.18470764 C-53.75412237 188.05708905 -53.75705328 184.92979804 -53.75011063 181.80215073 C-53.7392369 176.8397438 -53.75681128 171.87767289 -53.77792358 166.91531372 C-53.80810415 159.05232212 -53.81986966 151.1894313 -53.82350004 143.32638657 C-53.83014992 129.2796264 -53.85953773 115.23293815 -53.9085964 101.1862632 C-53.92492711 96.27105551 -53.93054391 91.3559944 -53.92700601 86.44076228 C-53.92656331 83.35994418 -53.93421634 80.2791796 -53.94368172 77.19837761 C-53.94632339 75.78968589 -53.9456847 74.38098273 -53.94117165 72.97229576 C-53.91855772 65.37708605 -54.24000022 57.90878362 -55.10971069 50.3677063 C-55.18929099 49.67527136 -55.26887128 48.98283642 -55.3508631 48.2694186 C-57.06572221 34.62300929 -62.04251186 21.0932059 -73.203125 12.41015625 C-80.62982713 7.49497372 -89.57637793 7.21461365 -98.203125 6.41015625 C-95.54403076 3.23080444 -92.14544162 1.72323373 -88.453125 0.03515625 C-87.78990234 -0.26938477 -87.12667969 -0.57392578 -86.44335938 -0.88769531 C-59.1223051 -13.15508087 -25.7811239 -18.60446352 0 0 Z" fill="#ffffff" transform="translate(373.203125,107.58984375)"/>
      <!-- Path 3 (Left Side) -->
      <path d="M0 0 C8.04244656 5.91215565 13.88913469 14.14973506 15.86051369 24.05943489 C16.31921896 27.35292948 16.44292195 30.47869108 16.45053101 33.802948 C16.45598434 35.0922673 16.46143768 36.38158661 16.46705627 37.7099762 C16.4681759 39.12680049 16.46922645 40.54362483 16.47021484 41.96044922 C16.47488771 43.46244962 16.48003205 44.96444861 16.48561096 46.46644592 C16.49686513 49.69609315 16.50531251 52.9257313 16.51173019 56.15539169 C16.52245576 61.27665336 16.54271559 66.39785001 16.56484985 71.51907349 C16.62661164 86.08071894 16.68065365 100.64236093 16.71386719 115.20410156 C16.73230013 123.25052589 16.76134704 131.29684138 16.8018719 139.34318554 C16.82280405 143.59249444 16.83837931 147.84166698 16.84067917 152.09103012 C16.84285052 156.0983105 16.85896848 160.10530747 16.88506889 164.11250114 C16.89217089 165.56997164 16.89440808 167.02747682 16.89096642 168.48496056 C16.85620295 186.03066266 19.10051106 204.3369037 30.96875 218.109375 C39.34902812 225.95890217 49.32953946 227.43445292 60.3125 228.3046875 C60.3125 228.9646875 60.3125 229.6246875 60.3125 230.3046875 C33.55521414 243.0639295 5.56708233 252.13214452 -23.6875 242.3046875 C-36.42868909 237.7784469 -46.02942194 227.80078191 -52.06640625 215.9375 C-56.6055431 205.76545838 -58.79542591 195.31600713 -58.83467102 184.19696045 C-58.83834771 183.51678746 -58.8420244 182.83661446 -58.8458125 182.13583016 C-58.85675318 179.87537627 -58.86067662 177.61496848 -58.86450195 175.35449219 C-58.87077376 173.72600665 -58.87742119 172.09752252 -58.88441467 170.46903992 C-58.90536804 165.13822408 -58.91580729 159.80740824 -58.92578125 154.4765625 C-58.92983174 152.63586665 -58.93394875 150.79517095 -58.93813133 148.9544754 C-58.957162 140.30631848 -58.97139877 131.65816999 -58.9797433 123.00999618 C-58.9797433 123.00999618 -59.01584187 103.08879983 -59.05624419 93.12816882 C-59.08645696 85.41326806 -59.10121697 77.69843086 -59.10452431 69.98347211 C-59.10686839 65.3827076 -59.11574535 60.78218111 -59.14098549 56.18148041 C-59.16436263 51.85082464 -59.16846098 47.52056205 -59.15822411 43.18985939 C-59.15773101 41.60770416 -59.16398406 40.02552892 -59.17778015 38.44343376 C-59.28899088 24.92524469 -57.2550017 14.34272207 -47.6875 4.3046875 C-34.63687302 -8.08234828 -15.10501775 -9.52845597 0 0 Z" fill="#ffffff" transform="translate(107.6875,106.6953125)"/>
    </g>
  </svg>

  <!-- TYPOGRAPHY / TEXT CONTAINER -->
  <!-- Left aligned, starting to the right of the logo HUD -->
  <g class="text-glow" font-family="system-ui, -apple-system, BlinkMacSystemFont, 'Segoe UI', Roboto, 'Helvetica Neue', Arial, sans-serif">
    <!-- Title "MYSTIC" -->
    <path d="M340.38 39.79L340.38 72L333.22 72L333.22 52.73Q333.22 49.61 333.49 45.83L333.31 45.83Q332.75 48.80 332.30 50.10L324.75 72L318.82 72L311.14 50.33Q310.83 49.45 310.13 45.83L309.93 45.83Q310.22 50.59 310.22 54.19L310.22 72L303.68 72L303.68 39.79L314.31 39.79L320.89 58.88Q321.67 61.17 322.03 63.49L322.17 63.49Q322.78 60.81 323.45 58.84L330.03 39.79 M374.31 39.79L381.99 39.79L371.50 60.54L371.50 72L364.24 72L364.24 60.68L354.02 39.79L362.31 39.79L367.50 51.81Q367.63 52.14 368.24 54.44L368.33 54.44Q368.62 52.82 369.03 51.90 M394.14 70.76L394.14 63.58Q396.10 65.22 398.39 66.04Q400.68 66.86 403.02 66.86Q404.39 66.86 405.41 66.61Q406.43 66.36 407.11 65.92Q407.80 65.49 408.14 64.89Q408.47 64.30 408.47 63.60Q408.47 62.66 407.93 61.92Q407.40 61.17 406.46 60.54Q405.53 59.92 404.25 59.33Q402.97 58.75 401.49 58.14Q397.71 56.57 395.86 54.30Q394.01 52.03 394.01 48.82Q394.01 46.30 395.02 44.50Q396.03 42.69 397.77 41.52Q399.51 40.35 401.80 39.80Q404.09 39.25 406.65 39.25Q409.17 39.25 411.11 39.56Q413.06 39.86 414.70 40.49L414.70 47.20Q413.89 46.64 412.93 46.21Q411.98 45.79 410.97 45.51Q409.96 45.23 408.96 45.09Q407.96 44.96 407.06 44.96Q405.82 44.96 404.81 45.19Q403.80 45.43 403.11 45.86Q402.41 46.28 402.03 46.88Q401.65 47.47 401.65 48.21Q401.65 49.02 402.07 49.66Q402.50 50.30 403.29 50.88Q404.07 51.45 405.19 52Q406.32 52.55 407.73 53.13Q409.66 53.94 411.20 54.85Q412.74 55.76 413.84 56.91Q414.94 58.05 415.53 59.52Q416.11 60.99 416.11 62.95Q416.11 65.64 415.09 67.47Q414.07 69.30 412.31 70.44Q410.56 71.57 408.24 72.07Q405.91 72.56 403.33 72.56Q400.68 72.56 398.29 72.11Q395.90 71.66 394.14 70.76 M454.03 39.79L454.03 45.70L444.84 45.70L444.84 72L437.57 72L437.57 45.70L428.42 45.70L428.42 39.79 M475.62 39.79L475.62 72L468.36 72L468.36 39.79 M516.03 64.23L516.03 70.85Q512.50 72.56 506.82 72.56Q499.41 72.56 495.17 68.20Q490.92 63.85 490.92 56.59Q490.92 48.87 495.69 44.06Q500.47 39.25 508.08 39.25Q512.80 39.25 516.03 40.44L516.03 47.43Q512.80 45.50 508.66 45.50Q504.13 45.50 501.34 48.35Q498.56 51.20 498.56 56.08Q498.56 60.75 501.18 63.52Q503.81 66.29 508.26 66.29Q512.50 66.29 516.03 64.23" fill="url(#titleGradient)"/>
    
    <!-- Tagline -->
    <path d="M310 103.44L310 106L301.60 106L301.60 92L309.68 92L309.68 94.56L304.76 94.56L304.76 97.68L309.34 97.68L309.34 100.24L304.76 100.24L304.76 103.44 M318.74 96L322.10 96L318.80 100.84L322.08 106L318.53 106L317.08 103.30Q316.91 102.98 316.66 102.40L316.62 102.40Q316.48 102.81 316.22 103.28L314.77 106L311.22 106L314.60 101.02L311.43 96L315 96L316.43 98.80Q316.71 99.36 316.83 99.74L316.87 99.74Q317.02 99.28 317.29 98.78 M327.11 104.84L327.07 104.84L327.07 110.60L323.99 110.60L323.99 96L327.07 96L327.07 97.50L327.11 97.50Q328.26 95.76 330.33 95.76Q332.27 95.76 333.33 97.09Q334.39 98.42 334.39 100.72Q334.39 103.22 333.15 104.73Q331.92 106.24 329.87 106.24Q328.06 106.24 327.11 104.84M327.03 100.74L327.03 101.54Q327.03 102.57 327.57 103.23Q328.12 103.88 329.01 103.88Q330.06 103.88 330.64 103.07Q331.22 102.25 331.22 100.76Q331.22 98.12 329.17 98.12Q328.23 98.12 327.63 98.84Q327.03 99.55 327.03 100.74 M339.98 91.20L339.98 106L336.89 106L336.89 91.20 M347.84 106.24Q345.34 106.24 343.91 104.84Q342.48 103.44 342.48 101.04Q342.48 98.56 343.96 97.16Q345.45 95.76 347.98 95.76Q350.47 95.76 351.88 97.16Q353.30 98.56 353.30 100.86Q353.30 103.35 351.84 104.80Q350.38 106.24 347.84 106.24M347.92 98.12Q346.82 98.12 346.22 98.87Q345.61 99.62 345.61 101Q345.61 103.88 347.94 103.88Q350.15 103.88 350.15 100.92Q350.15 98.12 347.92 98.12 M362.32 95.94L362.32 98.78Q361.77 98.48 361.03 98.48Q360.02 98.48 359.45 99.22Q358.89 99.96 358.89 101.22L358.89 106L355.80 106L355.80 96L358.89 96L358.89 97.86L358.93 97.86Q359.66 95.82 361.56 95.82Q362.05 95.82 362.32 95.94 M365.82 94.42Q365.04 94.42 364.54 93.95Q364.04 93.49 364.04 92.82Q364.04 92.12 364.54 91.68Q365.04 91.24 365.82 91.24Q366.61 91.24 367.11 91.68Q367.60 92.12 367.60 92.82Q367.60 93.52 367.11 93.97Q366.61 94.42 365.82 94.42M367.35 96L367.35 106L364.26 106L364.26 96 M380.10 99.88L380.10 106L377.03 106L377.03 100.44Q377.03 98.12 375.37 98.12Q374.56 98.12 374.05 98.73Q373.53 99.35 373.53 100.30L373.53 106L370.44 106L370.44 96L373.53 96L373.53 97.58L373.57 97.58Q374.67 95.76 376.78 95.76Q380.10 95.76 380.10 99.88 M392.85 96L392.85 104.86Q392.85 107.64 391.24 109.17Q389.63 110.70 386.57 110.70Q384.55 110.70 383.37 110.12L383.37 107.52Q384.91 108.42 386.48 108.42Q388.04 108.42 388.90 107.60Q389.76 106.77 389.76 105.36L389.76 104.56L389.72 104.56Q388.67 106.24 386.61 106.24Q384.69 106.24 383.57 104.90Q382.45 103.55 382.45 101.28Q382.45 98.74 383.70 97.25Q384.95 95.76 386.99 95.76Q388.81 95.76 389.72 97.16L389.76 97.16L389.76 96L392.85 96M389.80 101.20L389.80 100.40Q389.80 99.46 389.24 98.79Q388.68 98.12 387.78 98.12Q386.75 98.12 386.17 98.92Q385.58 99.72 385.58 101.18Q385.58 102.43 386.14 103.15Q386.70 103.88 387.66 103.88Q388.62 103.88 389.21 103.14Q389.80 102.41 389.80 101.20  M401.29 105.74L401.29 103.24Q402.05 103.70 402.81 103.92Q403.56 104.14 404.24 104.14Q405.06 104.14 405.53 103.92Q406.01 103.70 406.01 103.24Q406.01 102.94 405.79 102.75Q405.58 102.55 405.24 102.41Q404.90 102.26 404.50 102.14Q404.10 102.03 403.73 101.88Q403.13 101.65 402.68 101.40Q402.23 101.14 401.92 100.79Q401.61 100.45 401.45 100Q401.29 99.55 401.29 98.94Q401.29 98.10 401.66 97.49Q402.02 96.89 402.63 96.50Q403.24 96.12 404.03 95.94Q404.81 95.76 405.66 95.76Q406.33 95.76 407.01 95.86Q407.70 95.96 408.36 96.16L408.36 98.54Q407.77 98.20 407.10 98.03Q406.44 97.86 405.79 97.86Q405.49 97.86 405.22 97.91Q404.95 97.96 404.75 98.07Q404.54 98.17 404.42 98.33Q404.31 98.49 404.31 98.70Q404.31 98.97 404.48 99.16Q404.66 99.36 404.94 99.50Q405.22 99.64 405.57 99.75Q405.92 99.87 406.26 99.98Q406.88 100.20 407.37 100.45Q407.87 100.71 408.23 101.05Q408.58 101.39 408.77 101.85Q408.96 102.31 408.96 102.94Q408.96 103.83 408.58 104.46Q408.19 105.09 407.55 105.49Q406.91 105.88 406.08 106.06Q405.24 106.24 404.35 106.24Q402.70 106.24 401.29 105.74 M417.71 96L420.76 96L416.70 106.80Q415.24 110.70 412.29 110.70Q411.16 110.70 410.44 110.44L410.44 107.98Q411.06 108.34 411.78 108.34Q412.97 108.34 413.44 107.22L413.97 105.98L409.90 96L413.32 96L415.19 102.08Q415.36 102.65 415.46 103.42L415.50 103.42Q415.59 102.86 415.82 102.10 M421.85 105.74L421.85 103.24Q422.61 103.70 423.37 103.92Q424.13 104.14 424.80 104.14Q425.62 104.14 426.09 103.92Q426.57 103.70 426.57 103.24Q426.57 102.94 426.35 102.75Q426.14 102.55 425.80 102.41Q425.46 102.26 425.06 102.14Q424.66 102.03 424.29 101.88Q423.70 101.65 423.24 101.40Q422.79 101.14 422.48 100.79Q422.17 100.45 422.01 100Q421.85 99.55 421.85 98.94Q421.85 98.10 422.22 97.49Q422.58 96.89 423.19 96.50Q423.80 96.12 424.59 95.94Q425.38 95.76 426.22 95.76Q426.89 95.76 427.57 95.86Q428.26 95.96 428.92 96.16L428.92 98.54Q428.33 98.20 427.67 98.03Q427 97.86 426.35 97.86Q426.05 97.86 425.78 97.91Q425.51 97.96 425.31 98.07Q425.10 98.17 424.98 98.33Q424.87 98.49 424.87 98.70Q424.87 98.97 425.04 99.16Q425.22 99.36 425.50 99.50Q425.79 99.64 426.13 99.75Q426.48 99.87 426.82 99.98Q427.44 100.20 427.93 100.45Q428.43 100.71 428.79 101.05Q429.14 101.39 429.33 101.85Q429.53 102.31 429.53 102.94Q429.53 103.83 429.14 104.46Q428.75 105.09 428.11 105.49Q427.47 105.88 426.64 106.06Q425.80 106.24 424.91 106.24Q423.26 106.24 421.85 105.74 M437.85 103.60L437.85 105.88Q437.16 106.24 435.79 106.24Q432.53 106.24 432.53 102.86L432.53 98.28L430.90 98.28L430.90 96L432.53 96L432.53 93.84L435.60 92.96L435.60 96L437.85 96L437.85 98.28L435.60 98.28L435.60 102.32Q435.60 103.88 436.84 103.88Q437.33 103.88 437.85 103.60 M449.07 100.58L449.07 101.88L442.55 101.88Q442.70 104.06 445.29 104.06Q446.94 104.06 448.19 103.28L448.19 105.50Q446.80 106.24 444.59 106.24Q442.17 106.24 440.83 104.90Q439.49 103.56 439.49 101.16Q439.49 98.67 440.94 97.21Q442.38 95.76 444.49 95.76Q446.68 95.76 447.87 97.05Q449.07 98.35 449.07 100.58M442.53 99.98L446.21 99.98Q446.21 97.84 444.47 97.84Q443.73 97.84 443.19 98.45Q442.64 99.07 442.53 99.98 M467.29 99.78L467.29 106L464.21 106L464.21 100.30Q464.21 98.12 462.61 98.12Q461.85 98.12 461.37 98.77Q460.89 99.43 460.89 100.40L460.89 106L457.80 106L457.80 100.24Q457.80 98.12 456.23 98.12Q455.44 98.12 454.97 98.74Q454.49 99.37 454.49 100.44L454.49 106L451.41 106L451.41 96L454.49 96L454.49 97.56L454.53 97.56Q455.01 96.76 455.87 96.26Q456.74 95.76 457.76 95.76Q459.88 95.76 460.66 97.62Q461.81 95.76 464.02 95.76Q467.29 95.76 467.29 99.78 M469.57 105.74L469.57 103.24Q470.33 103.70 471.09 103.92Q471.85 104.14 472.52 104.14Q473.34 104.14 473.82 103.92Q474.29 103.70 474.29 103.24Q474.29 102.94 474.07 102.75Q473.86 102.55 473.52 102.41Q473.19 102.26 472.79 102.14Q472.38 102.03 472.01 101.88Q471.42 101.65 470.96 101.40Q470.51 101.14 470.20 100.79Q469.89 100.45 469.73 100Q469.57 99.55 469.57 98.94Q469.57 98.10 469.94 97.49Q470.30 96.89 470.92 96.50Q471.53 96.12 472.31 95.94Q473.10 95.76 473.95 95.76Q474.61 95.76 475.29 95.86Q475.98 95.96 476.64 96.16L476.64 98.54Q476.06 98.20 475.39 98.03Q474.72 97.86 474.07 97.86Q473.77 97.86 473.50 97.91Q473.23 97.96 473.03 98.07Q472.82 98.17 472.71 98.33Q472.59 98.49 472.59 98.70Q472.59 98.97 472.77 99.16Q472.94 99.36 473.22 99.50Q473.51 99.64 473.85 99.75Q474.20 99.87 474.54 99.98Q475.16 100.20 475.66 100.45Q476.15 100.71 476.51 101.05Q476.87 101.39 477.06 101.85Q477.25 102.31 477.25 102.94Q477.25 103.83 476.86 104.46Q476.48 105.09 475.84 105.49Q475.20 105.88 474.36 106.06Q473.53 106.24 472.63 106.24Q470.98 106.24 469.57 105.74  M488.67 104.84L488.63 104.84L488.63 106L485.54 106L485.54 91.20L488.63 91.20L488.63 97.50L488.67 97.50Q489.81 95.76 491.92 95.76Q493.85 95.76 494.90 97.08Q495.94 98.41 495.94 100.72Q495.94 103.22 494.72 104.73Q493.50 106.24 491.46 106.24Q489.62 106.24 488.67 104.84M488.58 100.62L488.58 101.64Q488.58 102.61 489.14 103.25Q489.69 103.88 490.56 103.88Q491.62 103.88 492.20 103.07Q492.78 102.25 492.78 100.76Q492.78 99.52 492.25 98.82Q491.71 98.12 490.73 98.12Q489.80 98.12 489.19 98.81Q488.58 99.51 488.58 100.62 M507.43 100.58L507.43 101.88L500.91 101.88Q501.06 104.06 503.65 104.06Q505.30 104.06 506.55 103.28L506.55 105.50Q505.16 106.24 502.95 106.24Q500.53 106.24 499.19 104.90Q497.85 103.56 497.85 101.16Q497.85 98.67 499.29 97.21Q500.74 95.76 502.85 95.76Q505.04 95.76 506.23 97.05Q507.43 98.35 507.43 100.58M500.89 99.98L504.57 99.98Q504.57 97.84 502.83 97.84Q502.09 97.84 501.55 98.45Q501 99.07 500.89 99.98 M516.23 96L519.29 96L515.22 106.80Q513.76 110.70 510.81 110.70Q509.69 110.70 508.96 110.44L508.96 107.98Q509.58 108.34 510.30 108.34Q511.49 108.34 511.96 107.22L512.49 105.98L508.43 96L511.85 96L513.71 102.08Q513.89 102.65 513.98 103.42L514.02 103.42Q514.11 102.86 514.35 102.10 M525.79 106.24Q523.29 106.24 521.86 104.84Q520.43 103.44 520.43 101.04Q520.43 98.56 521.92 97.16Q523.40 95.76 525.93 95.76Q528.42 95.76 529.84 97.16Q531.25 98.56 531.25 100.86Q531.25 103.35 529.79 104.80Q528.33 106.24 525.79 106.24M525.87 98.12Q524.78 98.12 524.17 98.87Q523.57 99.62 523.57 101Q523.57 103.88 525.89 103.88Q528.11 103.88 528.11 100.92Q528.11 98.12 525.87 98.12 M543.41 99.88L543.41 106L540.34 106L540.34 100.44Q540.34 98.12 538.68 98.12Q537.88 98.12 537.36 98.73Q536.84 99.35 536.84 100.30L536.84 106L533.75 106L533.75 96L536.84 96L536.84 97.58L536.88 97.58Q537.98 95.76 540.09 95.76Q543.41 95.76 543.41 99.88 M556.14 91.20L556.14 106L553.05 106L553.05 104.62L553.01 104.62Q551.96 106.24 549.92 106.24Q548.04 106.24 546.90 104.92Q545.76 103.60 545.76 101.22Q545.76 98.74 547.02 97.25Q548.28 95.76 550.32 95.76Q552.25 95.76 553.01 97.14L553.05 97.14L553.05 91.20L556.14 91.20M553.11 101.14L553.11 100.38Q553.11 99.41 552.54 98.76Q551.98 98.12 551.07 98.12Q550.04 98.12 549.47 98.92Q548.89 99.73 548.89 101.14Q548.89 102.46 549.45 103.17Q550.01 103.88 550.99 103.88Q551.93 103.88 552.52 103.13Q553.11 102.38 553.11 101.14  M571.30 103.60L571.30 105.88Q570.62 106.24 569.24 106.24Q565.98 106.24 565.98 102.86L565.98 98.28L564.36 98.28L564.36 96L565.98 96L565.98 93.84L569.05 92.96L569.05 96L571.30 96L571.30 98.28L569.05 98.28L569.05 102.32Q569.05 103.88 570.29 103.88Q570.78 103.88 571.30 103.60 M583.14 99.86L583.14 106L580.06 106L580.06 100.32Q580.06 98.12 578.46 98.12Q577.64 98.12 577.13 98.73Q576.62 99.35 576.62 100.30L576.62 106L573.54 106L573.54 91.20L576.62 91.20L576.62 97.48L576.66 97.48Q577.79 95.76 579.74 95.76Q583.14 95.76 583.14 99.86 M595.06 100.58L595.06 101.88L588.54 101.88Q588.70 104.06 591.28 104.06Q592.93 104.06 594.18 103.28L594.18 105.50Q592.80 106.24 590.58 106.24Q588.16 106.24 586.82 104.90Q585.48 103.56 585.48 101.16Q585.48 98.67 586.93 97.21Q588.37 95.76 590.48 95.76Q592.67 95.76 593.87 97.05Q595.06 98.35 595.06 100.58M588.52 99.98L592.20 99.98Q592.20 97.84 590.46 97.84Q589.72 97.84 589.18 98.45Q588.64 99.07 588.52 99.98  M602.76 105.74L602.76 103.24Q603.52 103.70 604.28 103.92Q605.04 104.14 605.71 104.14Q606.53 104.14 607 103.92Q607.48 103.70 607.48 103.24Q607.48 102.94 607.26 102.75Q607.05 102.55 606.71 102.41Q606.38 102.26 605.97 102.14Q605.57 102.03 605.20 101.88Q604.61 101.65 604.15 101.40Q603.70 101.14 603.39 100.79Q603.08 100.45 602.92 100Q602.76 99.55 602.76 98.94Q602.76 98.10 603.13 97.49Q603.49 96.89 604.10 96.50Q604.71 96.12 605.50 95.94Q606.29 95.76 607.14 95.76Q607.80 95.76 608.48 95.86Q609.17 95.96 609.83 96.16L609.83 98.54Q609.25 98.20 608.58 98.03Q607.91 97.86 607.26 97.86Q606.96 97.86 606.69 97.91Q606.42 97.96 606.22 98.07Q606.01 98.17 605.90 98.33Q605.78 98.49 605.78 98.70Q605.78 98.97 605.96 99.16Q606.13 99.36 606.41 99.50Q606.70 99.64 607.04 99.75Q607.39 99.87 607.73 99.98Q608.35 100.20 608.85 100.45Q609.34 100.71 609.70 101.05Q610.06 101.39 610.25 101.85Q610.44 102.31 610.44 102.94Q610.44 103.83 610.05 104.46Q609.67 105.09 609.03 105.49Q608.39 105.88 607.55 106.06Q606.72 106.24 605.82 106.24Q604.17 106.24 602.76 105.74 M622.22 96L622.22 106L619.14 106L619.14 104.48L619.09 104.48Q617.95 106.24 616.04 106.24Q612.56 106.24 612.56 102.04L612.56 96L615.63 96L615.63 101.76Q615.63 103.88 617.31 103.88Q618.14 103.88 618.64 103.30Q619.14 102.72 619.14 101.72L619.14 96 M631.84 95.94L631.84 98.78Q631.28 98.48 630.54 98.48Q629.53 98.48 628.97 99.22Q628.40 99.96 628.40 101.22L628.40 106L625.31 106L625.31 96L628.40 96L628.40 97.86L628.44 97.86Q629.17 95.82 631.08 95.82Q631.56 95.82 631.84 95.94 M640.30 91.16L640.30 93.56Q639.70 93.32 639.15 93.32Q637.67 93.32 637.67 94.94L637.67 96L639.96 96L639.96 98.28L637.67 98.28L637.67 106L634.59 106L634.59 98.28L632.91 98.28L632.91 96L634.59 96L634.59 94.76Q634.59 93.05 635.71 92.01Q636.82 90.96 638.73 90.96Q639.67 90.96 640.30 91.16 M650.26 100.02L650.26 106L647.34 106L647.34 104.56L647.30 104.56Q646.29 106.24 644.32 106.24Q642.87 106.24 642.03 105.42Q641.20 104.59 641.20 103.22Q641.20 100.31 644.64 99.86L647.36 99.50Q647.36 97.86 645.58 97.86Q643.79 97.86 642.18 98.92L642.18 96.60Q642.83 96.26 643.95 96.01Q645.06 95.76 645.98 95.76Q650.26 95.76 650.26 100.02M647.36 101.94L647.36 101.26L645.54 101.50Q644.04 101.69 644.04 102.86Q644.04 103.38 644.41 103.72Q644.77 104.06 645.40 104.06Q646.27 104.06 646.81 103.46Q647.36 102.86 647.36 101.94 M660.78 103.16L660.78 105.64Q659.73 106.24 657.76 106.24Q655.46 106.24 654.03 104.85Q652.61 103.45 652.61 101.24Q652.61 98.70 654.13 97.23Q655.66 95.76 658.22 95.76Q659.99 95.76 660.78 96.22L660.78 98.84Q659.81 98.12 658.62 98.12Q657.29 98.12 656.52 98.90Q655.74 99.67 655.74 101.04Q655.74 102.37 656.48 103.12Q657.22 103.88 658.52 103.88Q659.68 103.88 660.78 103.16 M672.29 100.58L672.29 101.88L665.76 101.88Q665.92 104.06 668.51 104.06Q670.16 104.06 671.41 103.28L671.41 105.50Q670.02 106.24 667.80 106.24Q665.38 106.24 664.04 104.90Q662.71 103.56 662.71 101.16Q662.71 98.67 664.15 97.21Q665.60 95.76 667.71 95.76Q669.89 95.76 671.09 97.05Q672.29 98.35 672.29 100.58M665.74 99.98L669.42 99.98Q669.42 97.84 667.69 97.84Q666.94 97.84 666.40 98.45Q665.86 99.07 665.74 99.98 M676 106.24Q675.24 106.24 674.73 105.78Q674.22 105.31 674.22 104.62Q674.22 103.92 674.74 103.47Q675.27 103.02 676.05 103.02Q676.84 103.02 677.34 103.48Q677.84 103.93 677.84 104.62Q677.84 105.34 677.33 105.79Q676.82 106.24 676 106.24" fill="#e2d8ff"/>
    
    <!-- Badges / Bullet point categories -->
    <path d=" M310.05 132L306.95 132L306.95 123.25L310.05 123.25Q314.71 123.25 314.71 127.51Q314.71 129.56 313.44 130.78Q312.17 132 310.05 132M309.89 124.85L308.92 124.85L308.92 130.40L309.90 130.40Q311.18 130.40 311.91 129.63Q312.64 128.86 312.64 127.54Q312.64 126.29 311.91 125.57Q311.19 124.85 309.89 124.85 M323.91 130.40L323.91 132L318.67 132L318.67 123.25L323.71 123.25L323.71 124.85L320.64 124.85L320.64 126.80L323.50 126.80L323.50 128.40L320.64 128.40L320.64 130.40 M333.04 123.25L335.11 123.25L332.09 132L329.86 132L326.88 123.25L329 123.25L330.83 129.34Q330.97 129.83 331 130.21L331.04 130.21Q331.08 129.80 331.23 129.31 M343.91 130.40L343.91 132L338.66 132L338.66 123.25L343.70 123.25L343.70 124.85L340.63 124.85L340.63 126.80L343.49 126.80L343.49 128.40L340.63 128.40L340.63 130.40 M353.02 130.40L353.02 132L347.81 132L347.81 123.25L349.78 123.25L349.78 130.40 M360.40 132.15Q358.52 132.15 357.33 130.93Q356.15 129.71 356.15 127.74Q356.15 125.66 357.35 124.38Q358.55 123.10 360.54 123.10Q362.41 123.10 363.57 124.33Q364.73 125.55 364.73 127.56Q364.73 129.63 363.53 130.89Q362.33 132.15 360.40 132.15M360.48 124.80Q359.45 124.80 358.84 125.58Q358.23 126.35 358.23 127.64Q358.23 128.94 358.84 129.69Q359.45 130.45 360.43 130.45Q361.45 130.45 362.05 129.71Q362.65 128.98 362.65 127.67Q362.65 126.31 362.07 125.55Q361.49 124.80 360.48 124.80 M371.59 128.98L370.65 128.98L370.65 132L368.68 132L368.68 123.25L371.77 123.25Q375.07 123.25 375.07 126.04Q375.07 127.36 374.13 128.17Q373.18 128.98 371.59 128.98M371.42 124.76L370.65 124.76L370.65 127.49L371.42 127.49Q373 127.49 373 126.11Q373 124.76 371.42 124.76 M388.83 123.25L388.83 132L386.88 132L386.88 126.76Q386.88 125.91 386.96 124.89L386.91 124.89Q386.75 125.70 386.63 126.05L384.58 132L382.97 132L380.88 126.11Q380.80 125.87 380.61 124.89L380.55 124.89Q380.63 126.18 380.63 127.16L380.63 132L378.86 132L378.86 123.25L381.74 123.25L383.53 128.44Q383.75 129.06 383.84 129.69L383.88 129.69Q384.04 128.96 384.23 128.42L386.02 123.25 M398.57 130.40L398.57 132L393.32 132L393.32 123.25L398.37 123.25L398.37 124.85L395.29 124.85L395.29 126.80L398.15 126.80L398.15 128.40L395.29 128.40L395.29 130.40 M410.35 123.25L410.35 132L408.36 132L404.75 126.50Q404.43 126.02 404.31 125.77L404.28 125.77Q404.33 126.24 404.33 127.19L404.33 132L402.47 132L402.47 123.25L404.60 123.25L408.07 128.58Q408.31 128.94 408.51 129.29L408.53 129.29Q408.48 128.98 408.48 128.09L408.48 123.25 M420.99 123.25L420.99 124.85L418.50 124.85L418.50 132L416.52 132L416.52 124.85L414.04 124.85L414.04 123.25  M432.27 130.28Q431.58 130.28 431.09 129.79Q430.60 129.30 430.60 128.60Q430.60 127.90 431.08 127.42Q431.57 126.93 432.27 126.93Q432.96 126.93 433.46 127.42Q433.96 127.91 433.96 128.60Q433.96 129.29 433.46 129.79Q432.96 130.28 432.27 130.28  M443.95 131.66L443.95 129.71Q444.48 130.16 445.10 130.38Q445.72 130.60 446.36 130.60Q446.73 130.60 447.01 130.54Q447.28 130.47 447.47 130.35Q447.66 130.23 447.75 130.07Q447.84 129.91 447.84 129.72Q447.84 129.46 447.69 129.26Q447.55 129.06 447.29 128.89Q447.04 128.72 446.69 128.56Q446.34 128.40 445.94 128.23Q444.92 127.81 444.41 127.19Q443.91 126.57 443.91 125.70Q443.91 125.02 444.18 124.53Q444.46 124.03 444.93 123.72Q445.40 123.40 446.03 123.25Q446.65 123.10 447.34 123.10Q448.03 123.10 448.56 123.18Q449.08 123.27 449.53 123.44L449.53 125.26Q449.31 125.11 449.05 124.99Q448.79 124.88 448.52 124.80Q448.24 124.72 447.97 124.69Q447.70 124.65 447.45 124.65Q447.12 124.65 446.84 124.72Q446.57 124.78 446.38 124.90Q446.19 125.01 446.09 125.17Q445.98 125.33 445.98 125.54Q445.98 125.76 446.10 125.93Q446.22 126.10 446.43 126.26Q446.64 126.42 446.95 126.56Q447.25 126.71 447.64 126.87Q448.16 127.09 448.58 127.34Q449 127.59 449.30 127.90Q449.60 128.21 449.76 128.61Q449.91 129.01 449.91 129.54Q449.91 130.27 449.64 130.77Q449.36 131.27 448.88 131.58Q448.41 131.88 447.78 132.02Q447.14 132.15 446.44 132.15Q445.72 132.15 445.07 132.03Q444.42 131.91 443.95 131.66 M459.10 130.40L459.10 132L453.85 132L453.85 123.25L458.90 123.25L458.90 124.85L455.83 124.85L455.83 126.80L458.69 126.80L458.69 128.40L455.83 128.40L455.83 130.40 M469.28 129.89L469.28 131.69Q468.32 132.15 466.78 132.15Q464.77 132.15 463.61 130.97Q462.46 129.78 462.46 127.81Q462.46 125.71 463.76 124.41Q465.05 123.10 467.12 123.10Q468.40 123.10 469.28 123.42L469.28 125.32Q468.40 124.80 467.28 124.80Q466.05 124.80 465.29 125.57Q464.53 126.35 464.53 127.67Q464.53 128.94 465.25 129.70Q465.96 130.45 467.17 130.45Q468.32 130.45 469.28 129.89 M480.44 123.25L480.44 128.21Q480.44 132.15 476.77 132.15Q473.20 132.15 473.20 128.30L473.20 123.25L475.18 123.25L475.18 128.33Q475.18 130.45 476.84 130.45Q478.47 130.45 478.47 128.40L478.47 123.25 M490.54 129.41L492.19 132L489.93 132L488.56 129.75Q488.41 129.49 488.27 129.29Q488.13 129.09 487.99 128.95Q487.84 128.80 487.69 128.73Q487.53 128.65 487.35 128.65L486.82 128.65L486.82 132L484.85 132L484.85 123.25L487.97 123.25Q491.16 123.25 491.16 125.63Q491.16 126.09 491.02 126.47Q490.88 126.86 490.62 127.17Q490.36 127.48 490 127.71Q489.64 127.94 489.19 128.06L489.19 128.09Q489.39 128.15 489.57 128.29Q489.75 128.42 489.93 128.61Q490.10 128.79 490.25 129Q490.41 129.21 490.54 129.41M487.71 124.72L486.82 124.72L486.82 127.16L487.67 127.16Q488.31 127.16 488.69 126.79Q489.08 126.42 489.08 125.87Q489.08 124.72 487.71 124.72 M497.48 123.25L497.48 132L495.51 132L495.51 123.25 M508.12 123.25L508.12 124.85L505.62 124.85L505.62 132L503.64 132L503.64 124.85L501.16 124.85L501.16 123.25 M516.30 123.25L518.39 123.25L515.54 128.89L515.54 132L513.57 132L513.57 128.92L510.79 123.25L513.04 123.25L514.45 126.51Q514.49 126.60 514.66 127.23L514.68 127.23Q514.76 126.79 514.87 126.54  M529.48 130.28Q528.79 130.28 528.30 129.79Q527.80 129.30 527.80 128.60Q527.80 127.90 528.29 127.42Q528.78 126.93 529.48 126.93Q530.17 126.93 530.67 127.42Q531.17 127.91 531.17 128.60Q531.17 129.29 530.67 129.79Q530.17 130.28 529.48 130.28  M546.14 123.25L549.25 132L547.10 132L546.48 130.05L543.37 130.05L542.75 132L540.62 132L543.80 123.25L546.14 123.25M543.79 128.54L546.03 128.54L545.09 125.60Q544.99 125.27 544.94 124.81L544.90 124.81Q544.86 125.19 544.74 125.57 M559.98 123.25L559.98 128.21Q559.98 132.15 556.31 132.15Q552.74 132.15 552.74 128.30L552.74 123.25L554.72 123.25L554.72 128.33Q554.72 130.45 556.38 130.45Q558.01 130.45 558.01 128.40L558.01 123.25 M570.53 123.25L570.53 124.85L568.03 124.85L568.03 132L566.06 132L566.06 124.85L563.57 124.85L563.57 123.25 M577.91 132.15Q576.03 132.15 574.84 130.93Q573.66 129.71 573.66 127.74Q573.66 125.66 574.86 124.38Q576.06 123.10 578.05 123.10Q579.92 123.10 581.08 124.33Q582.24 125.55 582.24 127.56Q582.24 129.63 581.04 130.89Q579.84 132.15 577.91 132.15M577.99 124.80Q576.96 124.80 576.35 125.58Q575.73 126.35 575.73 127.64Q575.73 128.94 576.35 129.69Q576.96 130.45 577.94 130.45Q578.96 130.45 579.56 129.71Q580.16 128.98 580.16 127.67Q580.16 126.31 579.58 125.55Q579 124.80 577.99 124.80 M596.16 123.25L596.16 132L594.21 132L594.21 126.76Q594.21 125.91 594.29 124.89L594.24 124.89Q594.09 125.70 593.96 126.05L591.91 132L590.30 132L588.21 126.11Q588.13 125.87 587.94 124.89L587.88 124.89Q587.96 126.18 587.96 127.16L587.96 132L586.19 132L586.19 123.25L589.07 123.25L590.86 128.44Q591.08 129.06 591.17 129.69L591.21 129.69Q591.38 128.96 591.56 128.42L593.35 123.25 M605.23 123.25L608.35 132L606.20 132L605.58 130.05L602.46 130.05L601.85 132L599.71 132L602.90 123.25L605.23 123.25M602.88 128.54L605.12 128.54L604.18 125.60Q604.08 125.27 604.04 124.81L603.99 124.81Q603.96 125.19 603.84 125.57 M618.09 123.25L618.09 124.85L615.59 124.85L615.59 132L613.61 132L613.61 124.85L611.13 124.85L611.13 123.25 M623.74 123.25L623.74 132L621.76 132L621.76 123.25 M631.92 132.15Q630.04 132.15 628.86 130.93Q627.68 129.71 627.68 127.74Q627.68 125.66 628.88 124.38Q630.08 123.10 632.06 123.10Q633.94 123.10 635.09 124.33Q636.25 125.55 636.25 127.56Q636.25 129.63 635.05 130.89Q633.85 132.15 631.92 132.15M632.01 124.80Q630.97 124.80 630.36 125.58Q629.75 126.35 629.75 127.64Q629.75 128.94 630.36 129.69Q630.97 130.45 631.96 130.45Q632.98 130.45 633.58 129.71Q634.18 128.98 634.18 127.67Q634.18 126.31 633.60 125.55Q633.02 124.80 632.01 124.80 M648.08 123.25L648.08 132L646.09 132L642.48 126.50Q642.16 126.02 642.04 125.77L642.02 125.77Q642.07 126.24 642.07 127.19L642.07 132L640.20 132L640.20 123.25L642.33 123.25L645.80 128.58Q646.04 128.94 646.24 129.29L646.26 129.29Q646.22 128.98 646.22 128.09L646.22 123.25  M660.18 130.28Q659.49 130.28 658.99 129.79Q658.50 129.30 658.50 128.60Q658.50 127.90 658.99 127.42Q659.48 126.93 660.18 126.93Q660.87 126.93 661.37 127.42Q661.87 127.91 661.87 128.60Q661.87 129.29 661.37 129.79Q660.87 130.28 660.18 130.28  M674.23 123.25L674.23 132L672.26 132L672.26 123.25 M686.59 123.25L686.59 132L684.60 132L680.99 126.50Q680.68 126.02 680.55 125.77L680.53 125.77Q680.58 126.24 680.58 127.19L680.58 132L678.72 132L678.72 123.25L680.84 123.25L684.31 128.58Q684.55 128.94 684.75 129.29L684.78 129.29Q684.73 128.98 684.73 128.09L684.73 123.25 M696.15 123.25L696.15 124.85L693.06 124.85L693.06 127L695.90 127L695.90 128.60L693.06 128.60L693.06 132L691.09 132L691.09 123.25 M705.78 129.41L707.44 132L705.17 132L703.81 129.75Q703.66 129.49 703.52 129.29Q703.38 129.09 703.23 128.95Q703.09 128.80 702.93 128.73Q702.78 128.65 702.60 128.65L702.06 128.65L702.06 132L700.09 132L700.09 123.25L703.22 123.25Q706.40 123.25 706.40 125.63Q706.40 126.09 706.26 126.47Q706.12 126.86 705.87 127.17Q705.61 127.48 705.25 127.71Q704.88 127.94 704.44 128.06L704.44 128.09Q704.63 128.15 704.82 128.29Q705 128.42 705.17 128.61Q705.34 128.79 705.50 129Q705.65 129.21 705.78 129.41M702.96 124.72L702.06 124.72L702.06 127.16L702.92 127.16Q703.55 127.16 703.94 126.79Q704.33 126.42 704.33 125.87Q704.33 124.72 702.96 124.72 M715.34 123.25L718.45 132L716.30 132L715.68 130.05L712.57 130.05L711.95 132L709.81 132L713 123.25L715.34 123.25M712.99 128.54L715.23 128.54L714.29 125.60Q714.18 125.27 714.14 124.81L714.09 124.81Q714.06 125.19 713.94 125.57 M721.64 131.66L721.64 129.71Q722.17 130.16 722.79 130.38Q723.42 130.60 724.05 130.60Q724.42 130.60 724.70 130.54Q724.98 130.47 725.16 130.35Q725.35 130.23 725.44 130.07Q725.53 129.91 725.53 129.72Q725.53 129.46 725.39 129.26Q725.24 129.06 724.99 128.89Q724.73 128.72 724.39 128.56Q724.04 128.40 723.64 128.23Q722.61 127.81 722.11 127.19Q721.60 126.57 721.60 125.70Q721.60 125.02 721.88 124.53Q722.15 124.03 722.63 123.72Q723.10 123.40 723.72 123.25Q724.34 123.10 725.04 123.10Q725.72 123.10 726.25 123.18Q726.78 123.27 727.22 123.44L727.22 125.26Q727 125.11 726.74 124.99Q726.49 124.88 726.21 124.80Q725.94 124.72 725.66 124.69Q725.39 124.65 725.15 124.65Q724.81 124.65 724.54 124.72Q724.26 124.78 724.07 124.90Q723.89 125.01 723.78 125.17Q723.68 125.33 723.68 125.54Q723.68 125.76 723.79 125.93Q723.91 126.10 724.12 126.26Q724.34 126.42 724.64 126.56Q724.95 126.71 725.33 126.87Q725.86 127.09 726.28 127.34Q726.69 127.59 726.99 127.90Q727.29 128.21 727.45 128.61Q727.61 129.01 727.61 129.54Q727.61 130.27 727.33 130.77Q727.05 131.27 726.58 131.58Q726.10 131.88 725.47 132.02Q724.84 132.15 724.14 132.15Q723.42 132.15 722.77 132.03Q722.12 131.91 721.64 131.66 M737.70 123.25L737.70 124.85L735.20 124.85L735.20 132L733.22 132L733.22 124.85L730.74 124.85L730.74 123.25 M747.06 129.41L748.72 132L746.45 132L745.09 129.75Q744.94 129.49 744.80 129.29Q744.66 129.09 744.51 128.95Q744.37 128.80 744.21 128.73Q744.06 128.65 743.88 128.65L743.34 128.65L743.34 132L741.37 132L741.37 123.25L744.50 123.25Q747.68 123.25 747.68 125.63Q747.68 126.09 747.54 126.47Q747.40 126.86 747.15 127.17Q746.89 127.48 746.53 127.71Q746.16 127.94 745.72 128.06L745.72 128.09Q745.91 128.15 746.10 128.29Q746.28 128.42 746.45 128.61Q746.62 128.79 746.78 129Q746.93 129.21 747.06 129.41M744.24 124.72L743.34 124.72L743.34 127.16L744.20 127.16Q744.83 127.16 745.22 126.79Q745.61 126.42 745.61 125.87Q745.61 124.72 744.24 124.72 M759.17 123.25L759.17 128.21Q759.17 132.15 755.49 132.15Q751.93 132.15 751.93 128.30L751.93 123.25L753.91 123.25L753.91 128.33Q753.91 130.45 755.57 130.45Q757.20 130.45 757.20 128.40L757.20 123.25 M769.85 129.89L769.85 131.69Q768.89 132.15 767.34 132.15Q765.33 132.15 764.18 130.97Q763.02 129.78 763.02 127.81Q763.02 125.71 764.32 124.41Q765.62 123.10 767.69 123.10Q768.97 123.10 769.85 123.42L769.85 125.32Q768.97 124.80 767.85 124.80Q766.61 124.80 765.86 125.57Q765.10 126.35 765.10 127.67Q765.10 128.94 765.81 129.70Q766.53 130.45 767.74 130.45Q768.89 130.45 769.85 129.89 M780.02 123.25L780.02 124.85L777.52 124.85L777.52 132L775.55 132L775.55 124.85L773.06 124.85L773.06 123.25 M790.83 123.25L790.83 128.21Q790.83 132.15 787.16 132.15Q783.59 132.15 783.59 128.30L783.59 123.25L785.57 123.25L785.57 128.33Q785.57 130.45 787.23 130.45Q788.86 130.45 788.86 128.40L788.86 123.25 M800.93 129.41L802.58 132L800.31 132L798.95 129.75Q798.80 129.49 798.66 129.29Q798.52 129.09 798.38 128.95Q798.23 128.80 798.08 128.73Q797.92 128.65 797.74 128.65L797.21 128.65L797.21 132L795.24 132L795.24 123.25L798.36 123.25Q801.55 123.25 801.55 125.63Q801.55 126.09 801.41 126.47Q801.27 126.86 801.01 127.17Q800.75 127.48 800.39 127.71Q800.03 127.94 799.58 128.06L799.58 128.09Q799.78 128.15 799.96 128.29Q800.14 128.42 800.31 128.61Q800.49 128.79 800.64 129Q800.80 129.21 800.93 129.41M798.10 124.72L797.21 124.72L797.21 127.16L798.06 127.16Q798.70 127.16 799.08 126.79Q799.47 126.42 799.47 125.87Q799.47 124.72 798.10 124.72 M811.15 130.40L811.15 132L805.90 132L805.90 123.25L810.94 123.25L810.94 124.85L807.87 124.85L807.87 126.80L810.73 126.80L810.73 128.40L807.87 128.40L807.87 130.40 " fill="#0ea5e9"/>
  </g>

  <!-- LIQUID WAVE DIVIDER & TRANSITION -->
  <!-- Wave 1 (Deepest/Back - Slow Purple Wave) -->
  <path d="M 0 150 Q 125 138 250 150 T 500 150 Q 625 138 750 150 T 1000 150 Q 1125 138 1250 150 T 1500 150 Q 1625 138 1750 150 T 2000 150 L 2000 250 L 0 250 Z" fill="#7c3aed" opacity="0.15">
    <animateTransform attributeName="transform" type="translate" from="0 0" to="-500 0" dur="18s" repeatCount="indefinite"/>
  </path>

  <!-- Wave 2 (Middle - Medium Cyan Wave moving right) -->
  <path d="M 0 150 Q 150 134 300 150 T 600 150 Q 750 134 900 150 T 1200 150 Q 1350 134 1500 150 T 1800 150 L 1800 250 L 0 250 Z" fill="#0ea5e9" opacity="0.22">
    <animateTransform attributeName="transform" type="translate" from="-600 0" to="0 0" dur="13s" repeatCount="indefinite"/>
  </path>

  <!-- Wave 3 (Front - Fast Neon Border and Alpha-Fade Fill) -->
  <path d="M 0 150 Q 175 130 350 150 T 700 150 Q 875 130 1050 150 T 1400 150 Q 1575 130 1750 150 T 2100 150 L 2100 250 L 0 250 Z" fill="url(#frontWaveFill)" stroke="url(#borderGradient)" stroke-width="2.2">
    <animateTransform attributeName="transform" type="translate" from="0 0" to="-700 0" dur="7.5s" repeatCount="indefinite"/>
  </path>
</svg>