<svg xmlns="http://www.w3.org/2000/svg" width="120" height="40" fill="none" viewBox="0 0 120 40">
  <rect width="120" height="40" fill="#5865F2" rx="6"/>
  <g filter="url(#a)">
    <path fill="#fff" d="M32.93 13.642a16.494 16.494 0 0 0-4.07-1.263.062.062 0 0 0-.066.031c-.175.313-.37.72-.506 1.042a15.25 15.25 0 0 0-4.573 0 10.824 10.824 0 0 0-.514-1.042.066.066 0 0 0-.066-.03 16.412 16.412 0 0 0-4.07 1.262.083.083 0 0 0-.027.022c-2.594 3.874-3.305 7.653-2.956 11.383a.065.065 0 0 0 .026.048 16.585 16.585 0 0 0 4.994 2.525.067.067 0 0 0 .07-.023c.387-.525.729-1.08 1.022-1.662a.064.064 0 0 0-.012-.074.064.064 0 0 0-.022-.014 10.841 10.841 0 0 1-1.56-.744.063.063 0 0 1-.032-.051.064.064 0 0 1 .025-.055 8.27 8.27 0 0 0 .31-.244.059.059 0 0 1 .065-.008c3.273 1.494 6.816 1.494 10.051 0a.058.058 0 0 1 .065.008c.1.083.204.164.311.244a.064.064 0 0 1 .025.054.065.065 0 0 1-.03.052c-.498.29-1.02.54-1.56.743a.064.064 0 0 0-.035.089c.3.582.643 1.135 1.02 1.66a.067.067 0 0 0 .07.024 16.502 16.502 0 0 0 5.003-2.525.07.07 0 0 0 .026-.045c.417-4.314-.698-8.061-2.957-11.383a.049.049 0 0 0-.026-.024Zm-10.247 9.133c-.985 0-1.797-.904-1.797-2.016 0-1.11.797-2.016 1.797-2.016 1.009 0 1.814.914 1.798 2.017 0 1.11-.797 2.015-1.798 2.015Zm6.646 0c-.986 0-1.797-.904-1.797-2.016 0-1.11.796-2.016 1.797-2.016 1.008 0 1.813.914 1.798 2.017 0 1.11-.789 2.015-1.798 2.015ZM49.09 26h-3.942V14.364h4.022c1.156 0 2.148.233 2.978.698a4.672 4.672 0 0 1 1.92 1.995c.447.867.67 1.905.67 3.114 0 1.212-.225 2.253-.675 3.125a4.673 4.673 0 0 1-1.938 2.005c-.84.466-1.852.699-3.034.699Zm-1.834-1.824h1.733c.81 0 1.486-.148 2.028-.443.542-.3.949-.744 1.222-1.335.272-.595.409-1.337.409-2.227 0-.89-.137-1.63-.41-2.216-.272-.591-.675-1.033-1.21-1.324-.53-.296-1.189-.444-1.977-.444h-1.795v7.99ZM56.65 26v-8.727h2.056V26H56.65Zm1.034-9.966a1.2 1.2 0 0 1-.841-.324 1.044 1.044 0 0 1-.352-.79c0-.31.117-.573.352-.79a1.19 1.19 0 0 1 .84-.329c.33 0 .61.11.842.33.234.216.352.479.352.79 0 .306-.118.57-.352.79a1.187 1.187 0 0 1-.841.323ZM67.72 19.58l-1.875.204a1.51 1.51 0 0 0-.278-.534 1.383 1.383 0 0 0-.523-.403c-.22-.103-.489-.154-.807-.154-.428 0-.788.093-1.08.279-.287.185-.43.426-.425.721a.755.755 0 0 0 .278.62c.193.159.511.29.955.392l1.488.318c.826.178 1.44.46 1.841.846.405.387.61.892.614 1.517a2.373 2.373 0 0 1-.483 1.455c-.315.417-.752.742-1.313.977-.56.235-1.204.352-1.932.352-1.068 0-1.928-.223-2.58-.67-.65-.45-1.039-1.078-1.164-1.88l2.006-.194c.09.394.284.691.58.892.295.2.68.301 1.153.301.488 0 .88-.1 1.176-.3.3-.202.449-.45.449-.745a.775.775 0 0 0-.29-.62c-.19-.162-.485-.287-.886-.375l-1.49-.312c-.836-.174-1.456-.468-1.857-.88-.401-.417-.6-.944-.597-1.58-.003-.538.142-1.004.438-1.398.3-.398.714-.704 1.244-.92.534-.22 1.15-.33 1.847-.33 1.022 0 1.828.218 2.415.654.59.435.956 1.024 1.096 1.767Zm5.69 6.59c-.87 0-1.619-.19-2.244-.573a3.832 3.832 0 0 1-1.437-1.586c-.334-.678-.5-1.458-.5-2.34 0-.887.17-1.67.511-2.347a3.815 3.815 0 0 1 1.443-1.591c.625-.383 1.364-.574 2.216-.574.709 0 1.335.13 1.88.392.55.258.988.623 1.313 1.097.326.47.512 1.019.557 1.648h-1.966a1.88 1.88 0 0 0-.568-1.052c-.295-.284-.691-.426-1.187-.426-.42 0-.79.114-1.108.341-.319.224-.567.546-.745.966-.174.42-.261.924-.261 1.511 0 .595.087 1.106.261 1.535.174.424.419.751.733.982a1.87 1.87 0 0 0 1.12.341c.303 0 .573-.056.812-.17.243-.118.445-.286.608-.506.163-.22.275-.487.335-.801h1.966a3.427 3.427 0 0 1-.545 1.642 3.23 3.23 0 0 1-1.284 1.114c-.542.265-1.178.398-1.91.398Zm9.235 0c-.852 0-1.591-.187-2.216-.562a3.82 3.82 0 0 1-1.455-1.574c-.34-.674-.51-1.462-.51-2.363 0-.902.17-1.692.51-2.37a3.812 3.812 0 0 1 1.455-1.58c.625-.374 1.364-.562 2.216-.562.852 0 1.59.188 2.216.563a3.775 3.775 0 0 1 1.449 1.58c.344.677.517 1.467.517 2.369 0 .901-.173 1.689-.517 2.363a3.783 3.783 0 0 1-1.45 1.574c-.624.375-1.363.563-2.215.563Zm.011-1.647c.462 0 .849-.127 1.16-.381.31-.258.541-.602.692-1.034.156-.432.234-.913.234-1.443 0-.534-.078-1.017-.234-1.45-.151-.435-.382-.781-.693-1.039-.31-.257-.697-.386-1.159-.386-.473 0-.867.129-1.182.386-.31.258-.543.604-.698 1.04a4.356 4.356 0 0 0-.228 1.449c0 .53.076 1.011.228 1.443.155.432.388.776.698 1.034.315.254.709.38 1.182.38ZM88.572 26v-8.727h1.995v1.454h.09c.16-.503.433-.892.819-1.165.39-.276.835-.414 1.335-.414.114 0 .24.005.38.017.145.007.264.02.359.04v1.892a2.168 2.168 0 0 0-.415-.08 3.818 3.818 0 0 0-.54-.04 2.08 2.08 0 0 0-1.011.245c-.296.159-.529.38-.7.664a1.88 1.88 0 0 0-.255.983V26h-2.057Zm9.224.153c-.686 0-1.3-.176-1.842-.528-.541-.352-.97-.864-1.283-1.534-.315-.67-.472-1.485-.472-2.443 0-.97.159-1.788.477-2.455.322-.67.756-1.176 1.301-1.517a3.344 3.344 0 0 1 1.824-.517c.511 0 .932.087 1.261.262.33.17.591.376.785.619.193.238.342.464.448.676h.086v-4.352h2.062V26h-2.023v-1.375h-.125a3.505 3.505 0 0 1-.46.676 2.53 2.53 0 0 1-.795.602c-.33.167-.745.25-1.245.25Zm.573-1.687c.436 0 .807-.117 1.114-.352.307-.239.54-.57.699-.995.159-.424.238-.918.238-1.483 0-.564-.079-1.055-.238-1.471-.155-.417-.386-.74-.693-.972-.303-.23-.677-.346-1.12-.346-.458 0-.84.119-1.147.357-.307.24-.538.569-.694.99-.155.42-.233.9-.233 1.442 0 .546.078 1.033.233 1.46.16.425.392.76.7 1.006.31.243.69.364 1.141.364Z"/>
  </g>
  <defs>
    <filter id="a" width="96" height="32" x="12" y="4" color-interpolation-filters="sRGB" filterUnits="userSpaceOnUse">
      <feFlood flood-opacity="0" result="BackgroundImageFix"/>
      <feColorMatrix in="SourceAlpha" result="hardAlpha" values="0 0 0 0 0 0 0 0 0 0 0 0 0 0 0 0 0 0 127 0"/>
      <feOffset/>
      <feGaussianBlur stdDeviation="2"/>
      <feComposite in2="hardAlpha" operator="out"/>
      <feColorMatrix values="0 0 0 0 0 0 0 0 0 0 0 0 0 0 0 0 0 0 0.25 0"/>
      <feBlend in2="BackgroundImageFix" result="effect1_dropShadow_2_12"/>
      <feBlend in="SourceGraphic" in2="effect1_dropShadow_2_12" result="shape"/>
    </filter>
  </defs>
</svg>
