<svg xmlns="http://www.w3.org/2000/svg" width="138" height="40" fill="none" viewBox="0 0 138 40">
  <rect width="138" height="40" fill="#333" rx="6"/>
  <g filter="url(#a)">
    <path fill="#fff" d="M26 10.248c-5.525 0-10 4.477-10 10a9.998 9.998 0 0 0 6.837 9.487c.5.094.684-.215.684-.48 0-.238-.009-.867-.013-1.7-2.781.602-3.368-1.343-3.368-1.343-.455-1.154-1.113-1.462-1.113-1.462-.905-.62.07-.608.07-.608 1.005.07 1.532 1.03 1.532 1.03.892 1.53 2.341 1.088 2.913.832.09-.646.347-1.087.633-1.337-2.22-.25-4.555-1.11-4.555-4.942 0-1.092.387-1.983 1.03-2.683-.113-.253-.45-1.27.087-2.647 0 0 .837-.268 2.75 1.025.8-.223 1.65-.332 2.5-.338.85.005 1.7.115 2.5.338 1.9-1.293 2.737-1.025 2.737-1.025.538 1.378.2 2.394.1 2.647.638.7 1.025 1.591 1.025 2.683 0 3.842-2.337 4.688-4.562 4.933.35.3.675.914.675 1.85 0 1.339-.013 2.414-.013 2.739 0 .262.175.575.688.475A9.966 9.966 0 0 0 36 20.247c0-5.522-4.477-10-10-10ZM49.09 26h-3.942V14.364h4.022c1.156 0 2.148.233 2.978.698a4.672 4.672 0 0 1 1.92 1.995c.447.867.67 1.905.67 3.114 0 1.212-.225 2.253-.675 3.125a4.673 4.673 0 0 1-1.938 2.005c-.84.466-1.852.699-3.034.699Zm-1.834-1.824h1.733c.81 0 1.486-.148 2.028-.443.542-.3.949-.744 1.222-1.335.272-.595.409-1.337.409-2.227 0-.89-.137-1.63-.41-2.216-.272-.591-.675-1.033-1.21-1.324-.53-.296-1.189-.444-1.977-.444h-1.795v7.99Zm13.201 1.995c-.852 0-1.59-.188-2.215-.563a3.82 3.82 0 0 1-1.455-1.574c-.341-.674-.511-1.462-.511-2.363 0-.902.17-1.692.51-2.37a3.812 3.812 0 0 1 1.456-1.58c.625-.374 1.363-.562 2.215-.562.853 0 1.591.188 2.216.563a3.775 3.775 0 0 1 1.45 1.58c.344.677.516 1.467.516 2.369 0 .901-.172 1.689-.517 2.363a3.783 3.783 0 0 1-1.449 1.574c-.625.375-1.363.563-2.216.563Zm.012-1.648c.462 0 .848-.127 1.159-.381.31-.258.541-.602.693-1.034.155-.432.233-.913.233-1.443 0-.534-.078-1.017-.233-1.45a2.296 2.296 0 0 0-.693-1.039c-.31-.257-.697-.386-1.16-.386-.473 0-.867.129-1.181.386-.31.258-.544.604-.699 1.04a4.356 4.356 0 0 0-.227 1.449c0 .53.076 1.011.227 1.443.155.432.388.776.699 1.034.314.254.708.38 1.182.38ZM67.936 26l-2.466-8.727h2.097l1.534 6.136h.08l1.568-6.136h2.073l1.569 6.102h.085l1.511-6.102h2.103L75.618 26h-2.142l-1.636-5.898h-.12L70.084 26h-2.148Zm13.646-5.114V26h-2.056v-8.727h1.966v1.483h.102c.2-.489.52-.877.96-1.165.443-.288.99-.432 1.642-.432.602 0 1.127.129 1.574.387.45.257.8.63 1.045 1.119.25.488.373 1.081.37 1.778V26h-2.057v-5.239c0-.583-.152-1.04-.455-1.369-.299-.33-.714-.494-1.244-.494-.36 0-.68.08-.96.238a1.655 1.655 0 0 0-.654.677c-.155.295-.233.653-.233 1.073Zm9.75-6.522V26h-2.056V14.364h2.056Zm5.922 11.806c-.852 0-1.59-.187-2.216-.562a3.82 3.82 0 0 1-1.454-1.574c-.341-.674-.512-1.462-.512-2.363 0-.902.17-1.692.512-2.37a3.812 3.812 0 0 1 1.454-1.58c.625-.374 1.364-.562 2.216-.562.852 0 1.591.188 2.216.563a3.776 3.776 0 0 1 1.449 1.58c.345.677.517 1.467.517 2.369 0 .901-.172 1.689-.517 2.363a3.784 3.784 0 0 1-1.449 1.574c-.625.375-1.364.563-2.216.563Zm.012-1.647c.462 0 .848-.127 1.159-.381.31-.258.541-.602.693-1.034.155-.432.233-.913.233-1.443 0-.534-.078-1.017-.233-1.45-.152-.435-.383-.781-.693-1.039-.31-.257-.697-.386-1.16-.386-.473 0-.867.129-1.181.386-.31.258-.544.604-.7 1.04a4.356 4.356 0 0 0-.226 1.449c0 .53.075 1.011.227 1.443.155.432.388.776.699 1.034.314.254.708.38 1.182.38Zm8.427 1.653a3.639 3.639 0 0 1-1.494-.295 2.44 2.44 0 0 1-1.046-.887c-.253-.39-.38-.87-.38-1.443 0-.492.091-.9.272-1.221.182-.322.43-.58.745-.773a3.746 3.746 0 0 1 1.062-.438 8.657 8.657 0 0 1 1.233-.221c.512-.053.926-.1 1.245-.142.318-.046.549-.114.693-.205.147-.095.221-.24.221-.437v-.035c0-.428-.127-.759-.38-.994-.254-.235-.62-.352-1.097-.352-.504 0-.903.11-1.199.33-.291.22-.488.479-.591.778l-1.92-.273c.151-.53.401-.973.75-1.33.348-.36.774-.628 1.278-.806a4.894 4.894 0 0 1 1.671-.273c.42 0 .839.05 1.255.148.417.098.798.261 1.142.489.345.223.622.528.83.914.212.387.318.87.318 1.45V26h-1.977v-1.199h-.068a2.5 2.5 0 0 1-.529.682 2.533 2.533 0 0 1-.846.506c-.337.125-.733.187-1.188.187Zm.534-1.511c.413 0 .771-.082 1.074-.244a1.81 1.81 0 0 0 .699-.66c.167-.272.25-.57.25-.892v-1.028a.96.96 0 0 1-.33.148 4.64 4.64 0 0 1-.511.119 14.86 14.86 0 0 1-.562.09l-.483.069c-.307.042-.582.11-.824.205a1.365 1.365 0 0 0-.574.397c-.14.167-.21.383-.21.648 0 .379.138.665.414.858.277.193.629.29 1.057.29Zm9.381 1.488a3.302 3.302 0 0 1-1.841-.528c-.542-.352-.97-.864-1.284-1.534-.314-.67-.472-1.485-.472-2.443 0-.97.159-1.788.478-2.455.322-.67.755-1.176 1.301-1.517a3.342 3.342 0 0 1 1.824-.517c.511 0 .931.087 1.261.262.33.17.591.376.784.619.193.238.343.464.449.676h.085v-4.352h2.063V26h-2.023v-1.375h-.125c-.106.212-.26.438-.46.676a2.531 2.531 0 0 1-.796.602c-.329.167-.744.25-1.244.25Zm.574-1.687c.435 0 .807-.117 1.113-.352.307-.239.54-.57.699-.995.159-.424.239-.918.239-1.483 0-.564-.08-1.055-.239-1.471-.155-.417-.386-.74-.693-.972-.303-.23-.676-.346-1.119-.346-.459 0-.841.119-1.148.357-.307.24-.538.569-.693.99-.155.42-.233.9-.233 1.442 0 .546.078 1.033.233 1.46.159.425.392.76.699 1.006.31.243.691.364 1.142.364Z"/>
  </g>
  <defs>
    <filter id="a" width="114" height="32" x="12" y="4" color-interpolation-filters="sRGB" filterUnits="userSpaceOnUse">
      <feFlood flood-opacity="0" result="BackgroundImageFix"/>
      <feColorMatrix in="SourceAlpha" result="hardAlpha" values="0 0 0 0 0 0 0 0 0 0 0 0 0 0 0 0 0 0 127 0"/>
      <feOffset/>
      <feGaussianBlur stdDeviation="2"/>
      <feComposite in2="hardAlpha" operator="out"/>
      <feColorMatrix values="0 0 0 0 0 0 0 0 0 0 0 0 0 0 0 0 0 0 0.25 0"/>
      <feBlend in2="BackgroundImageFix" result="effect1_dropShadow_2_24"/>
      <feBlend in="SourceGraphic" in2="effect1_dropShadow_2_24" result="shape"/>
    </filter>
  </defs>
</svg>
