<svg xmlns="http://www.w3.org/2000/svg" width="140" height="40" fill="none" viewBox="0 0 140 40">
  <rect width="140" height="40" fill="red" rx="6"/>
  <g filter="url(#a)">
    <path fill="#fff" d="M35.582 15.155a2.517 2.517 0 0 0-1.769-1.78c-1.559-.42-7.813-.42-7.813-.42s-6.254 0-7.814.42a2.516 2.516 0 0 0-1.768 1.78C16 16.725 16 20 16 20s0 3.275.418 4.845a2.517 2.517 0 0 0 1.769 1.78c1.559.42 7.813.42 7.813.42s6.254 0 7.814-.42a2.517 2.517 0 0 0 1.769-1.78C36 23.275 36 20 36 20s0-3.275-.418-4.845Zm-11.628 7.818v-5.946L29.182 20l-5.228 2.973Zm27.518-5.41c-.053-.497-.277-.883-.67-1.16-.391-.276-.899-.414-1.524-.414-.439 0-.816.066-1.13.198-.315.133-.555.313-.722.54a1.312 1.312 0 0 0-.256.779c0 .242.055.452.165.63.114.178.267.33.46.455.194.121.408.223.642.307.235.083.472.153.71.21l1.092.273c.439.102.861.24 1.267.415a4.43 4.43 0 0 1 1.096.659c.326.265.584.585.773.96.19.375.284.814.284 1.318 0 .682-.174 1.282-.523 1.801-.348.515-.852.919-1.511 1.21-.655.288-1.449.432-2.38.432-.906 0-1.692-.14-2.359-.42-.663-.28-1.181-.69-1.556-1.228-.372-.537-.572-1.193-.603-1.965h2.074c.03.405.155.742.375 1.01.22.27.506.47.858.603a3.39 3.39 0 0 0 1.193.199c.459 0 .86-.068 1.205-.204.348-.14.621-.334.818-.58a1.4 1.4 0 0 0 .301-.875c-.004-.303-.093-.553-.267-.75-.174-.2-.419-.367-.733-.5a7.051 7.051 0 0 0-1.09-.364l-1.325-.34c-.958-.247-1.716-.62-2.272-1.12-.553-.504-.83-1.172-.83-2.006 0-.685.186-1.286.557-1.8.375-.516.884-.915 1.528-1.2.644-.287 1.373-.431 2.188-.431.826 0 1.55.143 2.17.431.625.285 1.116.68 1.472 1.188a3.03 3.03 0 0 1 .551 1.739h-2.028Zm6.032 3.323V26h-2.057V14.364h2.012v4.392h.102a2.52 2.52 0 0 1 .949-1.165c.432-.288.981-.432 1.648-.432.606 0 1.134.127 1.585.38.45.255.8.626 1.045 1.114.25.489.375 1.086.375 1.79V26h-2.056v-5.239c0-.587-.152-1.043-.455-1.369-.3-.33-.72-.494-1.261-.494a2 2 0 0 0-.978.238 1.67 1.67 0 0 0-.67.677c-.16.295-.239.653-.239 1.073Zm11.563 5.285c-.852 0-1.591-.188-2.216-.563a3.82 3.82 0 0 1-1.455-1.574c-.34-.674-.511-1.462-.511-2.363 0-.902.17-1.692.511-2.37a3.812 3.812 0 0 1 1.455-1.58c.625-.374 1.364-.562 2.216-.562.852 0 1.59.188 2.216.563a3.774 3.774 0 0 1 1.448 1.58c.345.677.518 1.467.518 2.369 0 .901-.173 1.689-.517 2.363a3.782 3.782 0 0 1-1.45 1.574c-.624.375-1.363.563-2.215.563Zm.011-1.648c.462 0 .849-.127 1.16-.381.31-.258.54-.602.692-1.034.156-.432.233-.913.233-1.443 0-.534-.077-1.017-.233-1.45-.151-.435-.382-.781-.693-1.039-.31-.257-.697-.386-1.159-.386-.473 0-.867.129-1.182.386-.31.258-.543.604-.699 1.04a4.356 4.356 0 0 0-.227 1.449c0 .53.076 1.011.227 1.443.156.432.389.776.7 1.034.314.254.708.38 1.181.38ZM76.546 26l-2.467-8.727h2.097l1.534 6.136h.08l1.568-6.136h2.074L83 23.375h.085l1.512-6.102h2.102L84.227 26h-2.142l-1.636-5.898h-.12L78.694 26h-2.147Zm15.146.17c-.871 0-1.62-.19-2.245-.573a3.833 3.833 0 0 1-1.437-1.586c-.333-.678-.5-1.458-.5-2.34 0-.887.17-1.67.511-2.347a3.816 3.816 0 0 1 1.444-1.591c.624-.383 1.363-.574 2.215-.574.709 0 1.336.13 1.881.392.55.258.987.623 1.313 1.097.325.47.51 1.019.556 1.648h-1.966a1.88 1.88 0 0 0-.568-1.052c-.295-.284-.691-.426-1.187-.426-.42 0-.79.114-1.108.341-.318.224-.566.546-.745.966-.174.42-.26.924-.26 1.511 0 .595.086 1.106.26 1.535.175.424.42.751.734.982.318.228.69.341 1.119.341.303 0 .574-.056.812-.17.243-.118.445-.286.608-.506.163-.22.275-.487.335-.801h1.966a3.427 3.427 0 0 1-.545 1.642 3.23 3.23 0 0 1-1.284 1.114c-.542.265-1.178.398-1.91.398Zm7.939.006a3.64 3.64 0 0 1-1.495-.295 2.446 2.446 0 0 1-1.045-.887c-.254-.39-.38-.87-.38-1.443 0-.492.09-.9.272-1.221.182-.322.43-.58.744-.773a3.754 3.754 0 0 1 1.063-.438 8.64 8.64 0 0 1 1.233-.221c.511-.053.926-.1 1.244-.142.318-.046.549-.114.693-.205.148-.095.222-.24.222-.437v-.035c0-.428-.127-.759-.381-.994s-.619-.352-1.096-.352c-.504 0-.904.11-1.2.33-.291.22-.488.479-.59.778l-1.92-.273c.15-.53.4-.973.75-1.33.348-.36.774-.628 1.278-.806a4.89 4.89 0 0 1 1.67-.273c.421 0 .839.05 1.256.148.417.098.797.261 1.142.489.345.223.621.528.829.914.213.387.319.87.319 1.45V26h-1.978v-1.199h-.068c-.125.243-.301.47-.528.682a2.548 2.548 0 0 1-.847.506c-.337.125-.733.187-1.187.187Zm.534-1.511c.413 0 .771-.082 1.074-.244a1.81 1.81 0 0 0 .699-.66c.166-.272.25-.57.25-.892v-1.028a.979.979 0 0 1-.33.148 4.696 4.696 0 0 1-.511.119c-.19.034-.377.064-.563.09l-.483.069a3.6 3.6 0 0 0-.824.205 1.369 1.369 0 0 0-.574.397c-.14.167-.21.383-.21.648 0 .379.138.665.415.858.276.193.629.29 1.057.29Zm13.04-5.085-1.875.204a1.501 1.501 0 0 0-.279-.534 1.383 1.383 0 0 0-.523-.403c-.219-.103-.488-.154-.806-.154-.428 0-.788.093-1.08.279-.288.185-.43.426-.426.721a.755.755 0 0 0 .278.62c.194.159.512.29.955.392l1.489.318c.825.178 1.439.46 1.84.846.406.387.61.892.614 1.517a2.376 2.376 0 0 1-.483 1.455c-.314.417-.752.742-1.312.977-.561.235-1.205.352-1.932.352-1.068 0-1.928-.223-2.58-.67-.651-.45-1.04-1.078-1.165-1.88l2.006-.194c.091.394.284.691.58.892.295.2.68.301 1.153.301.489 0 .881-.1 1.176-.3.299-.202.449-.45.449-.745a.773.773 0 0 0-.29-.62c-.189-.162-.485-.287-.886-.375l-1.489-.312c-.837-.174-1.456-.468-1.858-.88-.401-.417-.6-.944-.596-1.58-.004-.538.142-1.004.437-1.398.3-.398.714-.704 1.245-.92.534-.22 1.149-.33 1.846-.33 1.023 0 1.828.218 2.415.654.591.435.956 1.024 1.097 1.767Zm5.747 6.59c-.875 0-1.631-.181-2.267-.545a3.694 3.694 0 0 1-1.461-1.557c-.34-.674-.511-1.468-.511-2.38 0-.898.171-1.686.511-2.364a3.866 3.866 0 0 1 1.444-1.591c.617-.383 1.342-.574 2.176-.574.538 0 1.045.087 1.522.262.482.17.906.435 1.273.795.371.36.663.818.875 1.375.212.553.318 1.212.318 1.977v.63h-7.153v-1.386h5.182a2.211 2.211 0 0 0-.256-1.05 1.863 1.863 0 0 0-.699-.734 1.963 1.963 0 0 0-1.034-.267c-.42 0-.79.103-1.108.307-.318.2-.566.466-.744.796a2.295 2.295 0 0 0-.267 1.073v1.21c0 .508.093.944.278 1.308.186.36.445.636.779.83.333.189.723.283 1.17.283.299 0 .57-.042.813-.125a1.81 1.81 0 0 0 .63-.38c.178-.167.313-.374.404-.62l1.92.216a2.99 2.99 0 0 1-.693 1.33 3.38 3.38 0 0 1-1.295.875c-.527.204-1.129.306-1.807.306Z"/>
  </g>
  <defs>
    <filter id="a" width="116" height="32" x="12" y="4" color-interpolation-filters="sRGB" filterUnits="userSpaceOnUse">
      <feFlood flood-opacity="0" result="BackgroundImageFix"/>
      <feColorMatrix in="SourceAlpha" result="hardAlpha" values="0 0 0 0 0 0 0 0 0 0 0 0 0 0 0 0 0 0 127 0"/>
      <feOffset/>
      <feGaussianBlur stdDeviation="2"/>
      <feComposite in2="hardAlpha" operator="out"/>
      <feColorMatrix values="0 0 0 0 0 0 0 0 0 0 0 0 0 0 0 0 0 0 0.25 0"/>
      <feBlend in2="BackgroundImageFix" result="effect1_dropShadow_2_9"/>
      <feBlend in="SourceGraphic" in2="effect1_dropShadow_2_9" result="shape"/>
    </filter>
  </defs>
</svg>
